<mxfile host="app.diagrams.net" modified="2023-11-11T12:32:59.316Z" agent="Mozilla/5.0 (Windows NT 10.0; Win64; x64) AppleWebKit/537.36 (KHTML, like Gecko) Chrome/119.0.0.0 Safari/537.36" etag="olu8TkcSUiO655OP5ShK" version="22.1.0" type="device">
  <diagram name="第 1 页" id="f1-srH1gnxxCvzGWOZI_">
    <mxGraphModel dx="954" dy="602" grid="0" gridSize="10" guides="1" tooltips="1" connect="1" arrows="1" fold="1" page="0" pageScale="1" pageWidth="827" pageHeight="1169" math="0" shadow="0">
      <root>
        <mxCell id="0" />
        <mxCell id="1" parent="0" />
        <mxCell id="TyBoefD37l7cN3BFOKy8-5" style="edgeStyle=orthogonalEdgeStyle;rounded=0;orthogonalLoop=1;jettySize=auto;html=1;" edge="1" parent="1" source="TyBoefD37l7cN3BFOKy8-2" target="TyBoefD37l7cN3BFOKy8-3">
          <mxGeometry relative="1" as="geometry" />
        </mxCell>
        <mxCell id="TyBoefD37l7cN3BFOKy8-2" value="&lt;font style=&quot;font-size: 14px;&quot;&gt;socket data query&lt;/font&gt;" style="rounded=0;whiteSpace=wrap;html=1;fillColor=#fff2cc;strokeColor=#d6b656;" vertex="1" parent="1">
          <mxGeometry x="235" y="138" width="120" height="60" as="geometry" />
        </mxCell>
        <mxCell id="TyBoefD37l7cN3BFOKy8-6" style="edgeStyle=orthogonalEdgeStyle;rounded=0;orthogonalLoop=1;jettySize=auto;html=1;" edge="1" parent="1" source="TyBoefD37l7cN3BFOKy8-3" target="TyBoefD37l7cN3BFOKy8-4">
          <mxGeometry relative="1" as="geometry" />
        </mxCell>
        <mxCell id="TyBoefD37l7cN3BFOKy8-3" value="&lt;font style=&quot;font-size: 14px;&quot;&gt;iterate to find exist instances&lt;/font&gt;" style="rounded=0;whiteSpace=wrap;html=1;fillColor=#fff2cc;strokeColor=#d6b656;" vertex="1" parent="1">
          <mxGeometry x="235" y="252" width="120" height="60" as="geometry" />
        </mxCell>
        <mxCell id="TyBoefD37l7cN3BFOKy8-4" value="&lt;font style=&quot;font-size: 14px;&quot;&gt;send infomations to modem&lt;/font&gt;" style="rounded=0;whiteSpace=wrap;html=1;fillColor=#fff2cc;strokeColor=#d6b656;" vertex="1" parent="1">
          <mxGeometry x="235" y="366" width="120" height="60" as="geometry" />
        </mxCell>
      </root>
    </mxGraphModel>
  </diagram>
</mxfile>
